<mxfile host="app.diagrams.net" modified="2022-01-22T04:49:13.569Z" agent="5.0 (Windows NT 10.0; Win64; x64) AppleWebKit/537.36 (KHTML, like Gecko) Chrome/97.0.4692.99 Safari/537.36" etag="2OwHnvIF8aDEXE9RieLD" version="16.4.5" type="github">
  <diagram id="D6CNZqnAn27z-_fWBvvw" name="Page-1">
    <mxGraphModel dx="716" dy="397" grid="1" gridSize="10" guides="1" tooltips="1" connect="1" arrows="1" fold="1" page="1" pageScale="1" pageWidth="850" pageHeight="1100" math="0" shadow="0">
      <root>
        <mxCell id="0" />
        <mxCell id="1" parent="0" />
        <mxCell id="q8Iq8Qz22xRnlzVJrOMp-1" value="&lt;b&gt;AbstractClass&lt;/b&gt;&lt;br&gt;----------------------------&lt;br&gt;&lt;div style=&quot;text-align: left&quot;&gt;&lt;span&gt;templateMethod()&lt;/span&gt;&lt;/div&gt;&lt;div style=&quot;text-align: left&quot;&gt;&lt;span&gt;primitiveOperation1()&lt;/span&gt;&lt;/div&gt;&lt;div style=&quot;text-align: left&quot;&gt;&lt;span&gt;primitiveOperation2()&lt;/span&gt;&lt;/div&gt;" style="rounded=0;whiteSpace=wrap;html=1;" vertex="1" parent="1">
          <mxGeometry x="280" y="210" width="120" height="80" as="geometry" />
        </mxCell>
        <mxCell id="q8Iq8Qz22xRnlzVJrOMp-2" value="&lt;b&gt;ConcreteClass&lt;/b&gt;&lt;br&gt;----------------------------&lt;br&gt;&lt;div style=&quot;text-align: left&quot;&gt;&lt;span&gt;primitiveOperation1()&lt;/span&gt;&lt;/div&gt;&lt;div style=&quot;text-align: left&quot;&gt;&lt;span&gt;primitiveOperation2()&lt;/span&gt;&lt;/div&gt;" style="rounded=0;whiteSpace=wrap;html=1;" vertex="1" parent="1">
          <mxGeometry x="280" y="420" width="120" height="80" as="geometry" />
        </mxCell>
        <mxCell id="q8Iq8Qz22xRnlzVJrOMp-3" value="" style="endArrow=block;html=1;rounded=0;exitX=0.5;exitY=0;exitDx=0;exitDy=0;entryX=0.5;entryY=1;entryDx=0;entryDy=0;endFill=0;" edge="1" parent="1" source="q8Iq8Qz22xRnlzVJrOMp-2" target="q8Iq8Qz22xRnlzVJrOMp-1">
          <mxGeometry width="50" height="50" relative="1" as="geometry">
            <mxPoint x="260" y="450" as="sourcePoint" />
            <mxPoint x="310" y="390" as="targetPoint" />
          </mxGeometry>
        </mxCell>
        <mxCell id="q8Iq8Qz22xRnlzVJrOMp-4" value="&lt;div style=&quot;text-align: left&quot;&gt;primitiveOperation1()&lt;/div&gt;&lt;div style=&quot;text-align: left&quot;&gt;primitiveOperation2()&lt;/div&gt;" style="rounded=0;whiteSpace=wrap;html=1;" vertex="1" parent="1">
          <mxGeometry x="570" y="220" width="120" height="60" as="geometry" />
        </mxCell>
        <mxCell id="q8Iq8Qz22xRnlzVJrOMp-5" value="" style="endArrow=none;dashed=1;html=1;dashPattern=1 3;strokeWidth=2;rounded=0;entryX=-0.017;entryY=0.583;entryDx=0;entryDy=0;entryPerimeter=0;" edge="1" parent="1" target="q8Iq8Qz22xRnlzVJrOMp-4">
          <mxGeometry width="50" height="50" relative="1" as="geometry">
            <mxPoint x="400" y="255" as="sourcePoint" />
            <mxPoint x="450" y="300" as="targetPoint" />
          </mxGeometry>
        </mxCell>
        <mxCell id="q8Iq8Qz22xRnlzVJrOMp-6" value="&lt;b&gt;AbstractClass&lt;/b&gt;&lt;br&gt;chứa templateMethod()" style="text;html=1;align=left;verticalAlign=middle;resizable=0;points=[];autosize=1;strokeColor=none;fillColor=none;" vertex="1" parent="1">
          <mxGeometry x="135" y="170" width="140" height="30" as="geometry" />
        </mxCell>
        <mxCell id="q8Iq8Qz22xRnlzVJrOMp-7" value="&lt;div&gt;&lt;span&gt;...và các phiên bản abstract của&amp;nbsp;&lt;/span&gt;&lt;/div&gt;&lt;div&gt;&lt;span&gt;các hành động được sử&amp;nbsp;&lt;/span&gt;&lt;/div&gt;&lt;div&gt;dụng trong &lt;b&gt;templateMethod()&lt;/b&gt;&lt;/div&gt;" style="text;html=1;align=left;verticalAlign=middle;resizable=0;points=[];autosize=1;strokeColor=none;fillColor=none;" vertex="1" parent="1">
          <mxGeometry x="95" y="230" width="190" height="50" as="geometry" />
        </mxCell>
        <mxCell id="q8Iq8Qz22xRnlzVJrOMp-8" value="Có thể có nhiều &lt;b&gt;ConcreteClass&lt;/b&gt;&lt;br&gt;mỗi cái thực hiện toàn bộ các&lt;br&gt;hành động theo yêu cầu&lt;br&gt;của templateMethod" style="text;html=1;align=left;verticalAlign=middle;resizable=0;points=[];autosize=1;strokeColor=none;fillColor=none;" vertex="1" parent="1">
          <mxGeometry x="90" y="450" width="190" height="60" as="geometry" />
        </mxCell>
        <mxCell id="q8Iq8Qz22xRnlzVJrOMp-9" value="&lt;div&gt;&lt;span&gt;TemplateMethod sử dụng&lt;/span&gt;&lt;/div&gt;&lt;div&gt;&lt;span&gt;các primitiveOperation&lt;/span&gt;&lt;/div&gt;&lt;div&gt;&lt;span&gt;để thực hiện thuật toán&lt;/span&gt;&lt;/div&gt;&lt;div&gt;&lt;span&gt;Nó được tách rời khỏi việc&lt;/span&gt;&lt;/div&gt;&lt;div&gt;&lt;span&gt;&amp;nbsp;cài đặt thực tế&amp;nbsp;&lt;/span&gt;&lt;span&gt;của các hoạt động này.&amp;nbsp;&lt;/span&gt;&lt;/div&gt;" style="text;html=1;align=left;verticalAlign=middle;resizable=0;points=[];autosize=1;strokeColor=none;fillColor=none;" vertex="1" parent="1">
          <mxGeometry x="540" y="130" width="230" height="80" as="geometry" />
        </mxCell>
        <mxCell id="q8Iq8Qz22xRnlzVJrOMp-10" value="&lt;div style=&quot;text-align: left&quot;&gt;&lt;b&gt;ConcreteClass &lt;/b&gt;triển khai&lt;/div&gt;&lt;div style=&quot;text-align: left&quot;&gt;&lt;span&gt;&amp;nbsp;các phương thức&amp;nbsp;&lt;/span&gt;&lt;/div&gt;&lt;div style=&quot;text-align: left&quot;&gt;&lt;span&gt;abstract, thứ được gọi khi&lt;/span&gt;&lt;/div&gt;&lt;div style=&quot;text-align: left&quot;&gt;&lt;span&gt;templateMethod() cần chúng&lt;/span&gt;&lt;/div&gt;" style="text;html=1;align=center;verticalAlign=middle;resizable=0;points=[];autosize=1;strokeColor=none;fillColor=none;" vertex="1" parent="1">
          <mxGeometry x="505" y="420" width="170" height="60" as="geometry" />
        </mxCell>
        <mxCell id="q8Iq8Qz22xRnlzVJrOMp-11" value="" style="curved=1;endArrow=open;html=1;rounded=0;entryX=0.311;entryY=-0.039;entryDx=0;entryDy=0;entryPerimeter=0;endFill=0;" edge="1" parent="1" target="q8Iq8Qz22xRnlzVJrOMp-1">
          <mxGeometry width="50" height="50" relative="1" as="geometry">
            <mxPoint x="230" y="160" as="sourcePoint" />
            <mxPoint x="310" y="110" as="targetPoint" />
            <Array as="points">
              <mxPoint x="310" y="160" />
              <mxPoint x="260" y="110" />
            </Array>
          </mxGeometry>
        </mxCell>
        <mxCell id="q8Iq8Qz22xRnlzVJrOMp-12" value="" style="curved=1;endArrow=open;html=1;rounded=0;exitX=0.503;exitY=-0.006;exitDx=0;exitDy=0;exitPerimeter=0;endFill=0;" edge="1" parent="1" source="q8Iq8Qz22xRnlzVJrOMp-8">
          <mxGeometry width="50" height="50" relative="1" as="geometry">
            <mxPoint x="220" y="460" as="sourcePoint" />
            <mxPoint x="260" y="420" as="targetPoint" />
            <Array as="points">
              <mxPoint x="200" y="430" />
              <mxPoint x="200" y="410" />
              <mxPoint x="185" y="400" />
              <mxPoint x="220" y="380" />
            </Array>
          </mxGeometry>
        </mxCell>
        <mxCell id="q8Iq8Qz22xRnlzVJrOMp-13" value="" style="curved=1;endArrow=open;html=1;rounded=0;endFill=0;" edge="1" parent="1" source="q8Iq8Qz22xRnlzVJrOMp-10">
          <mxGeometry width="50" height="50" relative="1" as="geometry">
            <mxPoint x="590" y="410" as="sourcePoint" />
            <mxPoint x="620" y="310" as="targetPoint" />
            <Array as="points">
              <mxPoint x="640" y="410" />
              <mxPoint x="590" y="360" />
            </Array>
          </mxGeometry>
        </mxCell>
        <mxCell id="q8Iq8Qz22xRnlzVJrOMp-14" value="" style="curved=1;endArrow=open;html=1;rounded=0;endFill=0;" edge="1" parent="1" source="q8Iq8Qz22xRnlzVJrOMp-10">
          <mxGeometry width="50" height="50" relative="1" as="geometry">
            <mxPoint x="460" y="430" as="sourcePoint" />
            <mxPoint x="430" y="410" as="targetPoint" />
            <Array as="points">
              <mxPoint x="510" y="430" />
              <mxPoint x="460" y="380" />
            </Array>
          </mxGeometry>
        </mxCell>
      </root>
    </mxGraphModel>
  </diagram>
</mxfile>
